# Blender v2.79 (sub 0) OBJ File: 'cylinder.blend'
# www.blender.org
mtllib cylinder.mtl
o Cylinder
v 0.000000 -10.800000 -11.400000
v 0.000000 10.800000 -11.400000
v 0.559371 -10.800000 -11.386268
v 0.559371 10.800000 -11.386268
v 1.117395 -10.800000 -11.345105
v 1.117395 10.800000 -11.345105
v 1.672727 -10.800000 -11.276612
v 1.672727 10.800000 -11.276612
v 2.224030 -10.800000 -11.180951
v 2.224030 10.800000 -11.180951
v 2.769974 -10.800000 -11.058356
v 2.769974 10.800000 -11.058356
v 3.309245 -10.800000 -10.909120
v 3.309245 10.800000 -10.909120
v 3.840544 -10.800000 -10.733602
v 3.840544 10.800000 -10.733602
v 4.362591 -10.800000 -10.532227
v 4.362591 10.800000 -10.532227
v 4.874127 -10.800000 -10.305478
v 4.874127 10.800000 -10.305478
v 5.373922 -10.800000 -10.053903
v 5.373922 10.800000 -10.053903
v 5.860771 -10.800000 -9.778106
v 5.860771 10.800000 -9.778106
v 6.333500 -10.800000 -9.478753
v 6.333500 10.800000 -9.478753
v 6.790972 -10.800000 -9.156566
v 6.790972 10.800000 -9.156566
v 7.232084 -10.800000 -8.812319
v 7.232084 10.800000 -8.812319
v 7.655772 -10.800000 -8.446842
v 7.655772 10.800000 -8.446842
v 8.061018 -10.800000 -8.061016
v 8.061018 10.800000 -8.061016
v 8.446843 -10.800000 -7.655771
v 8.446843 10.800000 -7.655771
v 8.812320 -10.800000 -7.232082
v 8.812320 10.800000 -7.232082
v 9.156567 -10.800000 -6.790970
v 9.156567 10.800000 -6.790970
v 9.478754 -10.800000 -6.333499
v 9.478754 10.800000 -6.333499
v 9.778107 -10.800000 -5.860769
v 9.778107 10.800000 -5.860769
v 10.053903 -10.800000 -5.373920
v 10.053903 10.800000 -5.373920
v 10.305478 -10.800000 -4.874126
v 10.305478 10.800000 -4.874126
v 10.532228 -10.800000 -4.362588
v 10.532228 10.800000 -4.362588
v 10.733603 -10.800000 -3.840541
v 10.733603 10.800000 -3.840541
v 10.909121 -10.800000 -3.309242
v 10.909121 10.800000 -3.309242
v 11.058356 -10.800000 -2.769971
v 11.058356 10.800000 -2.769971
v 11.180953 -10.800000 -2.224026
v 11.180953 10.800000 -2.224026
v 11.276612 -10.800000 -1.672724
v 11.276612 10.800000 -1.672724
v 11.345106 -10.800000 -1.117391
v 11.345106 10.800000 -1.117391
v 11.386268 -10.800000 -0.559367
v 11.386268 10.800000 -0.559367
v 11.400000 -10.800000 0.000005
v 11.400000 10.800000 0.000005
v 11.386268 -10.800000 0.559376
v 11.386268 10.800000 0.559376
v 11.345105 -10.800000 1.117400
v 11.345105 10.800000 1.117400
v 11.276611 -10.800000 1.672733
v 11.276611 10.800000 1.672733
v 11.180951 -10.800000 2.224035
v 11.180951 10.800000 2.224035
v 11.058354 -10.800000 2.769979
v 11.058354 10.800000 2.769979
v 10.909118 -10.800000 3.309251
v 10.909118 10.800000 3.309251
v 10.733600 -10.800000 3.840550
v 10.733600 10.800000 3.840550
v 10.532224 -10.800000 4.362597
v 10.532224 10.800000 4.362597
v 10.305475 -10.800000 4.874133
v 10.305475 10.800000 4.874133
v 10.053901 -10.800000 5.373926
v 10.053901 10.800000 5.373926
v 9.778105 -10.800000 5.860774
v 9.778105 10.800000 5.860774
v 9.478752 -10.800000 6.333502
v 9.478752 10.800000 6.333502
v 9.156566 -10.800000 6.790973
v 9.156566 10.800000 6.790973
v 8.812320 -10.800000 7.232083
v 8.812320 10.800000 7.232083
v 8.446844 -10.800000 7.655771
v 8.446844 10.800000 7.655771
v 8.061019 -10.800000 8.061015
v 8.061019 10.800000 8.061015
v 7.655775 -10.800000 8.446839
v 7.655775 10.800000 8.446839
v 7.232087 -10.800000 8.812316
v 7.232087 10.800000 8.812316
v 6.790977 -10.800000 9.156562
v 6.790977 10.800000 9.156562
v 6.333507 -10.800000 9.478749
v 6.333507 10.800000 9.478749
v 5.860778 -10.800000 9.778102
v 5.860778 10.800000 9.778102
v 5.373931 -10.800000 10.053898
v 5.373931 10.800000 10.053898
v 4.874137 -10.800000 10.305473
v 4.874137 10.800000 10.305473
v 4.362602 -10.800000 10.532222
v 4.362602 10.800000 10.532222
v 3.840556 -10.800000 10.733598
v 3.840556 10.800000 10.733598
v 3.309259 -10.800000 10.909116
v 3.309259 10.800000 10.909116
v 2.769989 -10.800000 11.058352
v 2.769989 10.800000 11.058352
v 2.224046 -10.800000 11.180949
v 2.224046 10.800000 11.180949
v 1.672745 -10.800000 11.276609
v 1.672745 10.800000 11.276609
v 1.117414 -10.800000 11.345103
v 1.117414 10.800000 11.345103
v 0.559391 -10.800000 11.386267
v 0.559391 10.800000 11.386267
v 0.000021 -10.800000 11.400000
v 0.000021 10.800000 11.400000
v -0.559350 -10.800000 11.386270
v -0.559350 10.800000 11.386270
v -1.117372 -10.800000 11.345107
v -1.117372 10.800000 11.345107
v -1.672704 -10.800000 11.276615
v -1.672704 10.800000 11.276615
v -2.224005 -10.800000 11.180957
v -2.224005 10.800000 11.180957
v -2.769948 -10.800000 11.058362
v -2.769948 10.800000 11.058362
v -3.309219 -10.800000 10.909127
v -3.309219 10.800000 10.909127
v -3.840517 -10.800000 10.733611
v -3.840517 10.800000 10.733611
v -4.362564 -10.800000 10.532238
v -4.362564 10.800000 10.532238
v -4.874100 -10.800000 10.305490
v -4.874100 10.800000 10.305490
v -5.373895 -10.800000 10.053917
v -5.373895 10.800000 10.053917
v -5.860743 -10.800000 9.778123
v -5.860743 10.800000 9.778123
v -6.333472 -10.800000 9.478772
v -6.333472 10.800000 9.478772
v -6.790943 -10.800000 9.156587
v -6.790943 10.800000 9.156587
v -7.232055 -10.800000 8.812342
v -7.232055 10.800000 8.812342
v -7.655744 -10.800000 8.446868
v -7.655744 10.800000 8.446868
v -8.060989 -10.800000 8.061045
v -8.060989 10.800000 8.061045
v -8.446816 -10.800000 7.655801
v -8.446816 10.800000 7.655801
v -8.812295 -10.800000 7.232113
v -8.812295 10.800000 7.232113
v -9.156544 -10.800000 6.791001
v -9.156544 10.800000 6.791001
v -9.478733 -10.800000 6.333530
v -9.478733 10.800000 6.333530
v -9.778089 -10.800000 5.860800
v -9.778089 10.800000 5.860800
v -10.053886 -10.800000 5.373951
v -10.053886 10.800000 5.373951
v -10.305464 -10.800000 4.874156
v -10.305464 10.800000 4.874156
v -10.532215 -10.800000 4.362618
v -10.532215 10.800000 4.362618
v -10.733593 -10.800000 3.840570
v -10.733593 10.800000 3.840570
v -10.909112 -10.800000 3.309270
v -10.909112 10.800000 3.309270
v -11.058350 -10.800000 2.769997
v -11.058350 10.800000 2.769997
v -11.180947 -10.800000 2.224052
v -11.180947 10.800000 2.224052
v -11.276608 -10.800000 1.672748
v -11.276608 10.800000 1.672748
v -11.345103 -10.800000 1.117415
v -11.345103 10.800000 1.117415
v -11.386267 -10.800000 0.559389
v -11.386267 10.800000 0.559389
v -11.400000 -10.800000 0.000016
v -11.400000 10.800000 0.000016
v -11.386269 -10.800000 -0.559357
v -11.386269 10.800000 -0.559357
v -11.345107 -10.800000 -1.117382
v -11.345107 10.800000 -1.117382
v -11.276613 -10.800000 -1.672716
v -11.276613 10.800000 -1.672716
v -11.180954 -10.800000 -2.224020
v -11.180954 10.800000 -2.224020
v -11.058358 -10.800000 -2.769966
v -11.058358 10.800000 -2.769966
v -10.909122 -10.800000 -3.309239
v -10.909122 10.800000 -3.309239
v -10.733603 -10.800000 -3.840539
v -10.733603 10.800000 -3.840539
v -10.532228 -10.800000 -4.362588
v -10.532228 10.800000 -4.362588
v -10.305478 -10.800000 -4.874126
v -10.305478 10.800000 -4.874126
v -10.053903 -10.800000 -5.373922
v -10.053903 10.800000 -5.373922
v -9.778105 -10.800000 -5.860772
v -9.778105 10.800000 -5.860772
v -9.478752 -10.800000 -6.333503
v -9.478752 10.800000 -6.333503
v -9.156563 -10.800000 -6.790975
v -9.156563 10.800000 -6.790975
v -8.812315 -10.800000 -7.232088
v -8.812315 10.800000 -7.232088
v -8.446837 -10.800000 -7.655777
v -8.446837 10.800000 -7.655777
v -8.061010 -10.800000 -8.061024
v -8.061010 10.800000 -8.061024
v -7.655764 -10.800000 -8.446850
v -7.655764 10.800000 -8.446850
v -7.232074 -10.800000 -8.812326
v -7.232074 10.800000 -8.812326
v -6.790960 -10.800000 -9.156574
v -6.790960 10.800000 -9.156574
v -6.333488 -10.800000 -9.478762
v -6.333488 10.800000 -9.478762
v -5.860756 -10.800000 -9.778114
v -5.860756 10.800000 -9.778114
v -5.373906 -10.800000 -10.053911
v -5.373906 10.800000 -10.053911
v -4.874109 -10.800000 -10.305486
v -4.874109 10.800000 -10.305486
v -4.362571 -10.800000 -10.532235
v -4.362571 10.800000 -10.532235
v -3.840522 -10.800000 -10.733610
v -3.840522 10.800000 -10.733610
v -3.309221 -10.800000 -10.909126
v -3.309221 10.800000 -10.909126
v -2.769948 -10.800000 -11.058362
v -2.769948 10.800000 -11.058362
v -2.224002 -10.800000 -11.180958
v -2.224002 10.800000 -11.180958
v -1.672698 -10.800000 -11.276616
v -1.672698 10.800000 -11.276616
v -1.117364 -10.800000 -11.345109
v -1.117364 10.800000 -11.345109
v -0.559339 -10.800000 -11.386270
v -0.559339 10.800000 -11.386270
vt 0.304709 0.000057
vt 0.312520 0.000057
vt 0.312527 0.994943
vt 0.304715 0.994944
vt 0.320332 0.000057
vt 0.320338 0.994943
vt 0.328144 0.000057
vt 0.328149 0.994943
vt 0.335955 0.000057
vt 0.335961 0.994943
vt 0.343767 0.000056
vt 0.343772 0.994943
vt 0.351579 0.000056
vt 0.351584 0.994943
vt 0.359390 0.000056
vt 0.359395 0.994943
vt 0.367202 0.000056
vt 0.367206 0.994943
vt 0.375013 0.000056
vt 0.375018 0.994942
vt 0.382825 0.000056
vt 0.382829 0.994942
vt 0.390637 0.000056
vt 0.390640 0.994942
vt 0.398448 0.000056
vt 0.398452 0.994942
vt 0.406260 0.000055
vt 0.406263 0.994942
vt 0.414072 0.000055
vt 0.414075 0.994942
vt 0.421883 0.000055
vt 0.421886 0.994942
vt 0.429695 0.000055
vt 0.429697 0.994942
vt 0.437507 0.000055
vt 0.437509 0.994942
vt 0.445318 0.000055
vt 0.445320 0.994942
vt 0.453130 0.000055
vt 0.453132 0.994942
vt 0.460942 0.000055
vt 0.460943 0.994942
vt 0.468753 0.000055
vt 0.468754 0.994942
vt 0.476565 0.000055
vt 0.476566 0.994942
vt 0.484376 0.000055
vt 0.484377 0.994942
vt 0.492188 0.000055
vt 0.492188 0.994942
vt 0.500000 0.000055
vt 0.500000 0.994942
vt 0.507811 0.000055
vt 0.507811 0.994942
vt 0.515623 0.000055
vt 0.515623 0.994942
vt 0.523435 0.000055
vt 0.523434 0.994942
vt 0.531246 0.000055
vt 0.531245 0.994942
vt 0.539058 0.000055
vt 0.539057 0.994942
vt 0.546870 0.000055
vt 0.546868 0.994942
vt 0.554681 0.000055
vt 0.554680 0.994942
vt 0.562493 0.000055
vt 0.562491 0.994942
vt 0.570305 0.000055
vt 0.570302 0.994942
vt 0.578116 0.000055
vt 0.578114 0.994942
vt 0.585928 0.000055
vt 0.585925 0.994942
vt 0.593740 0.000055
vt 0.593737 0.994942
vt 0.601551 0.000055
vt 0.601548 0.994942
vt 0.609363 0.000055
vt 0.609359 0.994942
vt 0.617175 0.000056
vt 0.617171 0.994942
vt 0.624986 0.000056
vt 0.624982 0.994942
vt 0.632798 0.000056
vt 0.632794 0.994943
vt 0.640610 0.000056
vt 0.640605 0.994943
vt 0.648421 0.000056
vt 0.648416 0.994943
vt 0.656233 0.000056
vt 0.656228 0.994943
vt 0.664044 0.000056
vt 0.664039 0.994943
vt 0.671856 0.000056
vt 0.671851 0.994943
vt 0.679668 0.000057
vt 0.679662 0.994943
vt 0.687479 0.000057
vt 0.687473 0.994944
vt 0.695291 0.000057
vt 0.695285 0.994944
vt 0.703103 0.000057
vt 0.703096 0.994944
vt 0.710914 0.000057
vt 0.710908 0.994944
vt 0.718726 0.000057
vt 0.718719 0.994944
vt 0.726537 0.000058
vt 0.726530 0.994944
vt 0.734349 0.000058
vt 0.734342 0.994945
vt 0.742161 0.000058
vt 0.742153 0.994945
vt 0.749972 0.000058
vt 0.749964 0.994945
vt 0.757784 0.000058
vt 0.757776 0.994945
vt 0.765596 0.000058
vt 0.765587 0.994945
vt 0.773407 0.000059
vt 0.773399 0.994946
vt 0.781219 0.000059
vt 0.781210 0.994946
vt 0.789031 0.000059
vt 0.789022 0.994946
vt 0.796842 0.000059
vt 0.796833 0.994946
vt 0.804654 0.000060
vt 0.804644 0.994947
vt 0.812465 0.000060
vt 0.812456 0.994947
vt 0.820277 0.000060
vt 0.820267 0.994947
vt 0.828089 0.000060
vt 0.828079 0.994947
vt 0.835900 0.000061
vt 0.835890 0.994948
vt 0.843712 0.000061
vt 0.843701 0.994948
vt 0.851524 0.000061
vt 0.851513 0.994948
vt 0.859335 0.000061
vt 0.859324 0.994949
vt 0.867147 0.000062
vt 0.867136 0.994949
vt 0.874959 0.000062
vt 0.874947 0.994949
vt 0.882770 0.000062
vt 0.882758 0.994949
vt 0.890582 0.000063
vt 0.890570 0.994950
vt 0.898394 0.000063
vt 0.898381 0.994950
vt 0.906205 0.000063
vt 0.906193 0.994950
vt 0.914017 0.000064
vt 0.914004 0.994951
vt 0.921828 0.000064
vt 0.921815 0.994951
vt 0.929640 0.000064
vt 0.929627 0.994951
vt 0.937452 0.000065
vt 0.937438 0.994952
vt 0.945263 0.000065
vt 0.945250 0.994952
vt 0.953075 0.000065
vt 0.953061 0.994953
vt 0.960887 0.000066
vt 0.960872 0.994953
vt 0.968698 0.000066
vt 0.968684 0.994953
vt 0.976510 0.000066
vt 0.976495 0.994954
vt 0.984322 0.000067
vt 0.984307 0.994954
vt 0.992133 0.000067
vt 0.992118 0.994954
vt 0.999945 0.000068
vt 0.999929 0.994955
vt 0.000055 0.000069
vt 0.007867 0.000068
vt 0.007883 0.994954
vt 0.000071 0.994955
vt 0.015678 0.000068
vt 0.015694 0.994954
vt 0.023490 0.000067
vt 0.023506 0.994954
vt 0.031302 0.000067
vt 0.031317 0.994953
vt 0.039113 0.000067
vt 0.039128 0.994953
vt 0.046925 0.000066
vt 0.046940 0.994952
vt 0.054736 0.000066
vt 0.054751 0.994952
vt 0.062548 0.000065
vt 0.062562 0.994952
vt 0.070360 0.000065
vt 0.070374 0.994951
vt 0.078171 0.000065
vt 0.078185 0.994951
vt 0.085983 0.000064
vt 0.085997 0.994951
vt 0.093795 0.000064
vt 0.093808 0.994950
vt 0.101606 0.000064
vt 0.101619 0.994950
vt 0.109418 0.000063
vt 0.109431 0.994950
vt 0.117230 0.000063
vt 0.117242 0.994949
vt 0.125041 0.000063
vt 0.125053 0.994949
vt 0.132853 0.000062
vt 0.132865 0.994949
vt 0.140665 0.000062
vt 0.140676 0.994948
vt 0.148476 0.000062
vt 0.148488 0.994948
vt 0.156288 0.000061
vt 0.156299 0.994948
vt 0.164099 0.000061
vt 0.164110 0.994947
vt 0.171911 0.000061
vt 0.171922 0.994947
vt 0.179723 0.000061
vt 0.179733 0.994947
vt 0.187534 0.000060
vt 0.187544 0.994947
vt 0.195346 0.000060
vt 0.195356 0.994946
vt 0.203158 0.000060
vt 0.203167 0.994946
vt 0.210969 0.000060
vt 0.210979 0.994946
vt 0.218781 0.000059
vt 0.218790 0.994946
vt 0.226593 0.000059
vt 0.226601 0.994946
vt 0.234404 0.000059
vt 0.234413 0.994945
vt 0.242216 0.000059
vt 0.242224 0.994945
vt 0.250028 0.000058
vt 0.250035 0.994945
vt 0.257839 0.000058
vt 0.257847 0.994945
vt 0.265651 0.000058
vt 0.265658 0.994945
vt 0.273463 0.000058
vt 0.273470 0.994944
vt 0.281274 0.000058
vt 0.281281 0.994944
vt 0.289086 0.000058
vt 0.289092 0.994944
vt 0.296898 0.000057
vt 0.296904 0.994944
vn 0.0000 0.0000 1.0000
vn -0.0490 0.0000 0.9988
vn -0.0980 0.0000 0.9952
vn -0.1467 0.0000 0.9892
vn -0.1951 0.0000 0.9808
vn -0.2430 0.0000 0.9700
vn -0.2903 0.0000 0.9569
vn -0.3369 0.0000 0.9415
vn -0.3827 0.0000 0.9239
vn -0.4275 0.0000 0.9040
vn -0.4714 0.0000 0.8819
vn -0.5141 0.0000 0.8577
vn -0.5556 0.0000 0.8314
vn -0.5957 0.0000 0.8032
vn -0.6344 0.0000 0.7730
vn -0.6715 0.0000 0.7409
vn -0.7071 0.0000 0.7071
vn -0.7409 0.0000 0.6715
vn -0.7730 0.0000 0.6344
vn -0.8032 0.0000 0.5957
vn -0.8314 0.0000 0.5556
vn -0.8577 0.0000 0.5141
vn -0.8819 0.0000 0.4714
vn -0.9040 0.0000 0.4275
vn -0.9239 0.0000 0.3827
vn -0.9415 0.0000 0.3369
vn -0.9569 0.0000 0.2903
vn -0.9700 0.0000 0.2430
vn -0.9808 0.0000 0.1951
vn -0.9892 0.0000 0.1467
vn -0.9952 0.0000 0.0980
vn -0.9988 0.0000 0.0490
vn -1.0000 0.0000 0.0000
vn -0.9988 0.0000 -0.0490
vn -0.9952 0.0000 -0.0980
vn -0.9892 0.0000 -0.1467
vn -0.9808 0.0000 -0.1951
vn -0.9700 0.0000 -0.2430
vn -0.9569 0.0000 -0.2903
vn -0.9415 0.0000 -0.3369
vn -0.9239 0.0000 -0.3827
vn -0.9040 0.0000 -0.4275
vn -0.8819 0.0000 -0.4714
vn -0.8577 0.0000 -0.5141
vn -0.8314 0.0000 -0.5556
vn -0.8032 0.0000 -0.5957
vn -0.7730 0.0000 -0.6344
vn -0.7409 0.0000 -0.6715
vn -0.7071 0.0000 -0.7071
vn -0.6715 0.0000 -0.7409
vn -0.6344 0.0000 -0.7730
vn -0.5957 0.0000 -0.8032
vn -0.5556 0.0000 -0.8314
vn -0.5141 0.0000 -0.8577
vn -0.4714 0.0000 -0.8819
vn -0.4275 0.0000 -0.9040
vn -0.3827 0.0000 -0.9239
vn -0.3369 0.0000 -0.9415
vn -0.2903 0.0000 -0.9569
vn -0.2430 0.0000 -0.9700
vn -0.1951 0.0000 -0.9808
vn -0.1467 0.0000 -0.9892
vn -0.0980 0.0000 -0.9952
vn -0.0490 0.0000 -0.9988
vn 0.0000 0.0000 -1.0000
vn 0.0490 0.0000 -0.9988
vn 0.0980 0.0000 -0.9952
vn 0.1467 0.0000 -0.9892
vn 0.1951 0.0000 -0.9808
vn 0.2430 0.0000 -0.9700
vn 0.2903 0.0000 -0.9569
vn 0.3369 0.0000 -0.9415
vn 0.3827 0.0000 -0.9239
vn 0.4275 0.0000 -0.9040
vn 0.4714 0.0000 -0.8819
vn 0.5141 0.0000 -0.8577
vn 0.5556 0.0000 -0.8314
vn 0.5957 0.0000 -0.8032
vn 0.6344 0.0000 -0.7730
vn 0.6715 0.0000 -0.7409
vn 0.7071 0.0000 -0.7071
vn 0.7409 0.0000 -0.6716
vn 0.7730 0.0000 -0.6344
vn 0.8032 0.0000 -0.5957
vn 0.8314 0.0000 -0.5556
vn 0.8577 0.0000 -0.5141
vn 0.8819 0.0000 -0.4714
vn 0.9040 0.0000 -0.4275
vn 0.9239 0.0000 -0.3827
vn 0.9415 0.0000 -0.3369
vn 0.9569 0.0000 -0.2903
vn 0.9700 0.0000 -0.2430
vn 0.9808 0.0000 -0.1951
vn 0.9892 0.0000 -0.1467
vn 0.9952 0.0000 -0.0980
vn 0.9988 0.0000 -0.0490
vn 1.0000 0.0000 0.0000
vn 0.9988 0.0000 0.0490
vn 0.9952 0.0000 0.0980
vn 0.9892 0.0000 0.1467
vn 0.9808 0.0000 0.1951
vn 0.9700 0.0000 0.2430
vn 0.9569 0.0000 0.2903
vn 0.9415 0.0000 0.3369
vn 0.9239 0.0000 0.3827
vn 0.9040 0.0000 0.4275
vn 0.8819 0.0000 0.4714
vn 0.8577 0.0000 0.5141
vn 0.8314 0.0000 0.5556
vn 0.8032 0.0000 0.5957
vn 0.7730 0.0000 0.6344
vn 0.7409 0.0000 0.6715
vn 0.7071 0.0000 0.7071
vn 0.6715 0.0000 0.7409
vn 0.6344 0.0000 0.7730
vn 0.5957 0.0000 0.8032
vn 0.5556 0.0000 0.8314
vn 0.5141 0.0000 0.8577
vn 0.4714 0.0000 0.8819
vn 0.4275 0.0000 0.9040
vn 0.3827 0.0000 0.9239
vn 0.3369 0.0000 0.9415
vn 0.2903 0.0000 0.9569
vn 0.2430 0.0000 0.9700
vn 0.1951 0.0000 0.9808
vn 0.1467 0.0000 0.9892
vn 0.0980 0.0000 0.9952
vn 0.0490 0.0000 0.9988
usemtl Material.001
s 1
f 1/1/1 3/2/2 4/3/2 2/4/1
f 3/2/2 5/5/3 6/6/3 4/3/2
f 5/5/3 7/7/4 8/8/4 6/6/3
f 7/7/4 9/9/5 10/10/5 8/8/4
f 9/9/5 11/11/6 12/12/6 10/10/5
f 11/11/6 13/13/7 14/14/7 12/12/6
f 13/13/7 15/15/8 16/16/8 14/14/7
f 15/15/8 17/17/9 18/18/9 16/16/8
f 17/17/9 19/19/10 20/20/10 18/18/9
f 19/19/10 21/21/11 22/22/11 20/20/10
f 21/21/11 23/23/12 24/24/12 22/22/11
f 23/23/12 25/25/13 26/26/13 24/24/12
f 25/25/13 27/27/14 28/28/14 26/26/13
f 27/27/14 29/29/15 30/30/15 28/28/14
f 29/29/15 31/31/16 32/32/16 30/30/15
f 31/31/16 33/33/17 34/34/17 32/32/16
f 33/33/17 35/35/18 36/36/18 34/34/17
f 35/35/18 37/37/19 38/38/19 36/36/18
f 37/37/19 39/39/20 40/40/20 38/38/19
f 39/39/20 41/41/21 42/42/21 40/40/20
f 41/41/21 43/43/22 44/44/22 42/42/21
f 43/43/22 45/45/23 46/46/23 44/44/22
f 45/45/23 47/47/24 48/48/24 46/46/23
f 47/47/24 49/49/25 50/50/25 48/48/24
f 49/49/25 51/51/26 52/52/26 50/50/25
f 51/51/26 53/53/27 54/54/27 52/52/26
f 53/53/27 55/55/28 56/56/28 54/54/27
f 55/55/28 57/57/29 58/58/29 56/56/28
f 57/57/29 59/59/30 60/60/30 58/58/29
f 59/59/30 61/61/31 62/62/31 60/60/30
f 61/61/31 63/63/32 64/64/32 62/62/31
f 63/63/32 65/65/33 66/66/33 64/64/32
f 65/65/33 67/67/34 68/68/34 66/66/33
f 67/67/34 69/69/35 70/70/35 68/68/34
f 69/69/35 71/71/36 72/72/36 70/70/35
f 71/71/36 73/73/37 74/74/37 72/72/36
f 73/73/37 75/75/38 76/76/38 74/74/37
f 75/75/38 77/77/39 78/78/39 76/76/38
f 77/77/39 79/79/40 80/80/40 78/78/39
f 79/79/40 81/81/41 82/82/41 80/80/40
f 81/81/41 83/83/42 84/84/42 82/82/41
f 83/83/42 85/85/43 86/86/43 84/84/42
f 85/85/43 87/87/44 88/88/44 86/86/43
f 87/87/44 89/89/45 90/90/45 88/88/44
f 89/89/45 91/91/46 92/92/46 90/90/45
f 91/91/46 93/93/47 94/94/47 92/92/46
f 93/93/47 95/95/48 96/96/48 94/94/47
f 95/95/48 97/97/49 98/98/49 96/96/48
f 97/97/49 99/99/50 100/100/50 98/98/49
f 99/99/50 101/101/51 102/102/51 100/100/50
f 101/101/51 103/103/52 104/104/52 102/102/51
f 103/103/52 105/105/53 106/106/53 104/104/52
f 105/105/53 107/107/54 108/108/54 106/106/53
f 107/107/54 109/109/55 110/110/55 108/108/54
f 109/109/55 111/111/56 112/112/56 110/110/55
f 111/111/56 113/113/57 114/114/57 112/112/56
f 113/113/57 115/115/58 116/116/58 114/114/57
f 115/115/58 117/117/59 118/118/59 116/116/58
f 117/117/59 119/119/60 120/120/60 118/118/59
f 119/119/60 121/121/61 122/122/61 120/120/60
f 121/121/61 123/123/62 124/124/62 122/122/61
f 123/123/62 125/125/63 126/126/63 124/124/62
f 125/125/63 127/127/64 128/128/64 126/126/63
f 127/127/64 129/129/65 130/130/65 128/128/64
f 129/129/65 131/131/66 132/132/66 130/130/65
f 131/131/66 133/133/67 134/134/67 132/132/66
f 133/133/67 135/135/68 136/136/68 134/134/67
f 135/135/68 137/137/69 138/138/69 136/136/68
f 137/137/69 139/139/70 140/140/70 138/138/69
f 139/139/70 141/141/71 142/142/71 140/140/70
f 141/141/71 143/143/72 144/144/72 142/142/71
f 143/143/72 145/145/73 146/146/73 144/144/72
f 145/145/73 147/147/74 148/148/74 146/146/73
f 147/147/74 149/149/75 150/150/75 148/148/74
f 149/149/75 151/151/76 152/152/76 150/150/75
f 151/151/76 153/153/77 154/154/77 152/152/76
f 153/153/77 155/155/78 156/156/78 154/154/77
f 155/155/78 157/157/79 158/158/79 156/156/78
f 157/157/79 159/159/80 160/160/80 158/158/79
f 159/159/80 161/161/81 162/162/81 160/160/80
f 161/161/81 163/163/82 164/164/82 162/162/81
f 163/163/82 165/165/83 166/166/83 164/164/82
f 165/165/83 167/167/84 168/168/84 166/166/83
f 167/167/84 169/169/85 170/170/85 168/168/84
f 169/169/85 171/171/86 172/172/86 170/170/85
f 171/171/86 173/173/87 174/174/87 172/172/86
f 173/173/87 175/175/88 176/176/88 174/174/87
f 175/175/88 177/177/89 178/178/89 176/176/88
f 177/177/89 179/179/90 180/180/90 178/178/89
f 179/181/90 181/182/91 182/183/91 180/184/90
f 181/182/91 183/185/92 184/186/92 182/183/91
f 183/185/92 185/187/93 186/188/93 184/186/92
f 185/187/93 187/189/94 188/190/94 186/188/93
f 187/189/94 189/191/95 190/192/95 188/190/94
f 189/191/95 191/193/96 192/194/96 190/192/95
f 191/193/96 193/195/97 194/196/97 192/194/96
f 193/195/97 195/197/98 196/198/98 194/196/97
f 195/197/98 197/199/99 198/200/99 196/198/98
f 197/199/99 199/201/100 200/202/100 198/200/99
f 199/201/100 201/203/101 202/204/101 200/202/100
f 201/203/101 203/205/102 204/206/102 202/204/101
f 203/205/102 205/207/103 206/208/103 204/206/102
f 205/207/103 207/209/104 208/210/104 206/208/103
f 207/209/104 209/211/105 210/212/105 208/210/104
f 209/211/105 211/213/106 212/214/106 210/212/105
f 211/213/106 213/215/107 214/216/107 212/214/106
f 213/215/107 215/217/108 216/218/108 214/216/107
f 215/217/108 217/219/109 218/220/109 216/218/108
f 217/219/109 219/221/110 220/222/110 218/220/109
f 219/221/110 221/223/111 222/224/111 220/222/110
f 221/223/111 223/225/112 224/226/112 222/224/111
f 223/225/112 225/227/113 226/228/113 224/226/112
f 225/227/113 227/229/114 228/230/114 226/228/113
f 227/229/114 229/231/115 230/232/115 228/230/114
f 229/231/115 231/233/116 232/234/116 230/232/115
f 231/233/116 233/235/117 234/236/117 232/234/116
f 233/235/117 235/237/118 236/238/118 234/236/117
f 235/237/118 237/239/119 238/240/119 236/238/118
f 237/239/119 239/241/120 240/242/120 238/240/119
f 239/241/120 241/243/121 242/244/121 240/242/120
f 241/243/121 243/245/122 244/246/122 242/244/121
f 243/245/122 245/247/123 246/248/123 244/246/122
f 245/247/123 247/249/124 248/250/124 246/248/123
f 247/249/124 249/251/125 250/252/125 248/250/124
f 249/251/125 251/253/126 252/254/126 250/252/125
f 251/253/126 253/255/127 254/256/127 252/254/126
f 253/255/127 255/257/128 256/258/128 254/256/127
f 255/257/128 1/1/1 2/4/1 256/258/128
